<svg width="29" height="31" viewBox="0 0 29 31" fill="none" xmlns="http://www.w3.org/2000/svg">
<path d="M1.81 1.7942L18.446 0.568201C20.489 0.393201 21.014 0.511201 22.298 1.4432L27.609 5.1762C28.486 5.8182 28.778 5.9932 28.778 6.6922V27.1652C28.778 28.4482 28.31 29.2072 26.676 29.3232L7.357 30.4902C6.129 30.5482 5.546 30.3732 4.903 29.5562L0.993 24.4822C0.29 23.5482 0 22.8492 0 22.0322V3.8342C0 2.7852 0.468 1.9102 1.81 1.7942Z" fill="white"/>
<path fill-rule="evenodd" clip-rule="evenodd" d="M18.447 0.568201L1.808 1.7942C0.468 1.9102 0 2.7852 0 3.8342V22.0322C0 22.8492 0.291 23.5482 0.992 24.4822L4.903 29.5562C5.546 30.3732 6.129 30.5482 7.356 30.4902L26.677 29.3232C28.311 29.2072 28.779 28.4482 28.779 27.1652V6.6922C28.779 6.0292 28.516 5.8382 27.742 5.2722L27.61 5.1762L22.3 1.4432C21.015 0.511201 20.49 0.393201 18.446 0.568201H18.447ZM7.793 6.3572C6.216 6.4632 5.857 6.4872 4.962 5.7602L2.685 3.9522C2.452 3.7182 2.569 3.4262 3.152 3.3682L19.147 2.2022C20.489 2.0852 21.19 2.5522 21.715 2.9602L24.459 4.9432C24.576 5.0022 24.867 5.3512 24.517 5.3512L7.997 6.3432L7.793 6.3572ZM5.954 26.9902V9.6102C5.954 8.8512 6.188 8.5012 6.888 8.4422L25.859 7.3342C26.502 7.2762 26.794 7.6842 26.794 8.4422V25.7062C26.794 26.4652 26.677 27.1072 25.626 27.1652L7.472 28.2152C6.422 28.2732 5.954 27.9242 5.954 26.9902ZM23.876 10.5422C23.992 11.0672 23.876 11.5922 23.349 11.6522L22.475 11.8252V24.6572C21.715 25.0652 21.015 25.2982 20.431 25.2982C19.497 25.2982 19.263 25.0062 18.563 24.1322L12.842 15.1502V23.8402L14.652 24.2492C14.652 24.2492 14.652 25.2992 13.192 25.2992L9.165 25.5322C9.048 25.2982 9.165 24.7152 9.573 24.5992L10.624 24.3082V12.8182L9.165 12.7002C9.048 12.1752 9.339 11.4172 10.157 11.3592L14.477 11.0672L20.431 20.1672V12.1172L18.913 11.9432C18.797 11.3002 19.263 10.8342 19.847 10.7762L23.876 10.5422Z" fill="black"/>
</svg>
